<?xml version="1.0" encoding="utf-8"?>
<!-- Generator: Adobe Illustrator 21.0.0, SVG Export Plug-In . SVG Version: 6.00 Build 0)  -->
<svg version="1.1" id="Layer_1" xmlns="http://www.w3.org/2000/svg" xmlns:xlink="http://www.w3.org/1999/xlink" x="0px" y="0px"
	 viewBox="0 0 233 84" style="enable-background:new 0 0 233 84;" xml:space="preserve">
<style type="text/css">
	.st0{fill:url(#SVGID_1_);}
	.st1{fill:#010101;}
</style>
<g>
	
		<linearGradient id="SVGID_1_" gradientUnits="userSpaceOnUse" x1="18.1" y1="905.8" x2="45.9" y2="905.8" gradientTransform="matrix(1 0 0 1 0 -864)">
		<stop  offset="0" style="stop-color:#FFD600"/>
		<stop  offset="1" style="stop-color:#F4AD21"/>
	</linearGradient>
	<polygon class="st0" points="34.5,37 42.5,5.2 18.1,46.6 29.5,46.6 21.5,78.4 45.9,37 	"/>
	<path class="st1" d="M8,41.8c0-12.8,10.2-23.4,22.9-24l3.5-6c-0.8-0.1-1.6-0.1-2.4-0.1c-8,0-15.5,3.1-21.2,8.8S2,33.7,2,41.7
		s3.1,15.5,8.8,21.2c2.7,2.7,5.8,4.8,9.3,6.3l1.5-5.9C13.5,59.5,8,51.3,8,41.8z"/>
	<path class="st1" d="M53.2,20.6c-2.7-2.7-5.8-4.8-9.3-6.3l-1.5,5.9c8,3.9,13.5,12.1,13.5,21.6c0,12.8-10.2,23.4-22.9,24l-3.5,6
		c0.8,0.1,1.6,0.1,2.4,0.1c8,0,15.5-3.1,21.2-8.8s8.8-13.2,8.8-21.2C62,33.8,58.9,26.3,53.2,20.6z"/>
	<g>
		<g>
			<g>
				<path d="M69.1,23.6h1.5v9.2h5.7v1.3h-7.2V23.6z"/>
				<path d="M78.9,33.7c-0.6-0.4-1.1-0.8-1.5-1.4c-0.4-0.6-0.5-1.3-0.5-2.1c0-0.8,0.2-1.5,0.5-2.1c0.4-0.6,0.8-1.1,1.5-1.4
					c0.6-0.3,1.3-0.5,2.1-0.5s1.5,0.2,2.1,0.5c0.6,0.3,1.1,0.8,1.5,1.4c0.4,0.6,0.5,1.3,0.5,2.1c0,0.8-0.2,1.5-0.5,2.1
					c-0.4,0.6-0.8,1.1-1.5,1.4s-1.3,0.5-2.1,0.5S79.6,34,78.9,33.7z M82.4,32.6c0.4-0.2,0.7-0.6,1-1c0.2-0.4,0.3-0.9,0.3-1.5
					c0-0.5-0.1-1-0.3-1.5c-0.2-0.4-0.5-0.8-1-1c-0.4-0.2-0.9-0.3-1.4-0.3c-0.5,0-1,0.1-1.4,0.3c-0.4,0.2-0.7,0.6-1,1
					c-0.2,0.4-0.4,0.9-0.4,1.5c0,0.6,0.1,1,0.4,1.5c0.2,0.4,0.6,0.8,1,1c0.4,0.2,0.9,0.4,1.4,0.4C81.6,33,82,32.8,82.4,32.6z"/>
				<path d="M94.8,26.2V33c0,1.4-0.3,2.4-1,3.1s-1.7,1-3.1,1c-0.8,0-1.5-0.1-2.1-0.3c-0.7-0.2-1.2-0.5-1.7-0.9l0.7-1.1
					c0.4,0.3,0.8,0.6,1.4,0.8s1.1,0.3,1.7,0.3c0.9,0,1.6-0.2,2.1-0.7c0.4-0.4,0.7-1.1,0.7-2v-0.6c-0.3,0.4-0.8,0.7-1.3,0.9
					c-0.5,0.2-1,0.3-1.6,0.3c-0.8,0-1.4-0.2-2.1-0.5c-0.6-0.3-1.1-0.8-1.4-1.4s-0.5-1.3-0.5-2s0.2-1.4,0.5-2s0.8-1,1.4-1.4
					c0.6-0.3,1.3-0.5,2.1-0.5c0.6,0,1.2,0.1,1.7,0.3c0.5,0.2,0.9,0.5,1.3,1v-1.2H94.8z M92.1,32.2c0.4-0.2,0.7-0.5,1-0.9
					s0.4-0.8,0.4-1.3c0-0.8-0.3-1.4-0.8-1.9c-0.5-0.5-1.2-0.7-2-0.7c-0.8,0-1.5,0.2-2,0.7c-0.5,0.5-0.8,1.1-0.8,1.9
					c0,0.5,0.1,0.9,0.4,1.3s0.6,0.7,1,0.9c0.4,0.2,0.9,0.3,1.4,0.3C91.2,32.5,91.6,32.4,92.1,32.2z"/>
				<path d="M98.8,33.7c-0.6-0.4-1.1-0.8-1.5-1.4c-0.4-0.6-0.5-1.3-0.5-2.1c0-0.8,0.2-1.5,0.5-2.1c0.4-0.6,0.8-1.1,1.5-1.4
					c0.6-0.3,1.3-0.5,2.1-0.5s1.5,0.2,2.1,0.5c0.6,0.3,1.1,0.8,1.5,1.4c0.4,0.6,0.5,1.3,0.5,2.1c0,0.8-0.2,1.5-0.5,2.1
					c-0.4,0.6-0.8,1.1-1.5,1.4s-1.3,0.5-2.1,0.5S99.4,34,98.8,33.7z M102.3,32.6c0.4-0.2,0.7-0.6,1-1c0.2-0.4,0.3-0.9,0.3-1.5
					c0-0.5-0.1-1-0.3-1.5c-0.2-0.4-0.5-0.8-1-1c-0.4-0.2-0.9-0.3-1.4-0.3c-0.5,0-1,0.1-1.4,0.3c-0.4,0.2-0.7,0.6-1,1
					c-0.2,0.4-0.4,0.9-0.4,1.5c0,0.6,0.1,1,0.4,1.5c0.2,0.4,0.6,0.8,1,1c0.4,0.2,0.9,0.4,1.4,0.4C101.5,33,101.9,32.8,102.3,32.6z"
					/>
			</g>
		</g>
		<g>
			<path d="M85.5,58.2l0-10.5l-5.1,8.7h-1.8l-5.1-8.4v10.3h-3.8V40.7h3.3l6.6,10.9l6.4-10.9h3.3l0,17.5H85.5z"/>
			<path d="M95.8,57.5c-1.1-0.6-2-1.4-2.6-2.5c-0.6-1-1-2.2-1-3.6c0-1.3,0.3-2.5,1-3.6c0.6-1,1.5-1.9,2.6-2.5
				c1.1-0.6,2.4-0.9,3.8-0.9c1.4,0,2.7,0.3,3.8,0.9c1.1,0.6,2,1.4,2.6,2.5c0.6,1,0.9,2.2,0.9,3.6c0,1.3-0.3,2.5-0.9,3.6
				c-0.6,1.1-1.5,1.9-2.6,2.5c-1.1,0.6-2.4,0.9-3.8,0.9C98.2,58.4,96.9,58.1,95.8,57.5z M102,54.2c0.6-0.7,1-1.6,1-2.7
				c0-1.1-0.3-2-1-2.7c-0.6-0.7-1.5-1-2.5-1s-1.8,0.3-2.5,1s-1,1.6-1,2.7c0,1.1,0.3,2,1,2.7s1.5,1,2.5,1S101.4,54.8,102,54.2z"/>
			<path d="M120.9,45.4c1,0.6,1.8,1.4,2.4,2.4c0.6,1,0.9,2.3,0.9,3.6c0,1.4-0.3,2.6-0.9,3.6c-0.6,1-1.4,1.9-2.4,2.4
				c-1,0.6-2.2,0.9-3.4,0.9c-1.8,0-3.3-0.6-4.2-1.8v1.5h-3.7V39.6h3.9v6.5c1-1.1,2.3-1.6,4-1.6C118.8,44.5,119.9,44.8,120.9,45.4z
				 M119.3,54.2c0.6-0.7,1-1.6,1-2.7c0-1.1-0.3-2-1-2.7s-1.5-1-2.5-1s-1.8,0.3-2.5,1s-1,1.6-1,2.7c0,1.1,0.3,2,1,2.7s1.5,1,2.5,1
				S118.6,54.8,119.3,54.2z"/>
			<path d="M127,42.2c-0.5-0.4-0.7-0.9-0.7-1.5c0-0.6,0.2-1.1,0.7-1.5s1-0.6,1.8-0.6s1.3,0.2,1.8,0.6c0.5,0.4,0.7,0.9,0.7,1.5
				c0,0.7-0.2,1.2-0.7,1.6c-0.5,0.4-1,0.6-1.8,0.6S127.4,42.6,127,42.2z M126.8,44.7h3.9v13.5h-3.9V44.7z"/>
			<path d="M134.3,39.6h3.9v18.5h-3.9V39.6z"/>
			<path d="M154.9,52.5h-10.2c0.2,0.8,0.6,1.5,1.3,2c0.7,0.5,1.5,0.7,2.5,0.7c0.7,0,1.3-0.1,1.9-0.3c0.5-0.2,1-0.5,1.5-1l2.1,2.3
				c-1.3,1.4-3.1,2.2-5.6,2.2c-1.5,0-2.9-0.3-4-0.9c-1.2-0.6-2.1-1.4-2.7-2.5c-0.6-1-1-2.2-1-3.6c0-1.3,0.3-2.5,0.9-3.6
				s1.5-1.9,2.6-2.5c1.1-0.6,2.3-0.9,3.7-0.9c1.3,0,2.5,0.3,3.6,0.9s1.9,1.4,2.5,2.4s0.9,2.3,0.9,3.7C155,51.5,155,51.9,154.9,52.5z
				 M145.8,48.2c-0.6,0.5-1,1.2-1.1,2h6.6c-0.1-0.8-0.5-1.5-1.1-2c-0.6-0.5-1.3-0.8-2.2-0.8C147.2,47.5,146.4,47.7,145.8,48.2z"/>
			<path d="M166.7,57.9c-1.3-0.4-2.3-0.9-3.1-1.5l1.4-3.1c0.8,0.6,1.6,1,2.7,1.3c1,0.3,2.1,0.5,3.1,0.5c1.2,0,2-0.2,2.6-0.5
				c0.5-0.3,0.8-0.8,0.8-1.4c0-0.4-0.2-0.8-0.5-1c-0.3-0.3-0.7-0.5-1.3-0.7c-0.5-0.2-1.2-0.3-2.1-0.5c-1.3-0.3-2.4-0.6-3.3-1
				c-0.9-0.3-1.6-0.8-2.2-1.5c-0.6-0.7-0.9-1.6-0.9-2.8c0-1,0.3-1.9,0.8-2.8s1.4-1.5,2.5-2c1.1-0.5,2.5-0.7,4.1-0.7
				c1.1,0,2.2,0.1,3.3,0.4c1.1,0.3,2,0.7,2.8,1.2l-1.3,3.1c-1.6-0.9-3.2-1.4-4.8-1.4c-1.1,0-2,0.2-2.5,0.5c-0.5,0.4-0.8,0.8-0.8,1.5
				c0,0.6,0.3,1,0.9,1.3c0.6,0.3,1.6,0.6,2.9,0.9c1.3,0.3,2.4,0.6,3.3,0.9c0.8,0.3,1.6,0.8,2.2,1.5c0.6,0.7,0.9,1.6,0.9,2.8
				c0,1-0.3,1.9-0.8,2.7s-1.4,1.5-2.5,2c-1.1,0.5-2.5,0.7-4.1,0.7C169.3,58.5,168,58.3,166.7,57.9z"/>
			<path d="M189.3,57.5c-0.4,0.3-0.9,0.5-1.4,0.6s-1.1,0.2-1.8,0.2c-1.6,0-2.8-0.4-3.7-1.2c-0.9-0.8-1.3-2-1.3-3.6V48H179v-3h2.1
				v-3.3h3.9V45h3.4v3H185v5.5c0,0.6,0.1,1,0.4,1.3s0.7,0.5,1.2,0.5c0.6,0,1.1-0.2,1.6-0.5L189.3,57.5z"/>
			<path d="M193.7,57.5c-1.1-0.6-2-1.4-2.6-2.5c-0.6-1-1-2.2-1-3.6c0-1.3,0.3-2.5,1-3.6c0.6-1,1.5-1.9,2.6-2.5
				c1.1-0.6,2.4-0.9,3.8-0.9c1.4,0,2.7,0.3,3.8,0.9c1.1,0.6,2,1.4,2.6,2.5c0.6,1,1,2.2,1,3.6c0,1.3-0.3,2.5-1,3.6
				c-0.6,1.1-1.5,1.9-2.6,2.5c-1.1,0.6-2.4,0.9-3.8,0.9C196.1,58.4,194.8,58.1,193.7,57.5z M200,54.2c0.6-0.7,1-1.6,1-2.7
				c0-1.1-0.3-2-1-2.7s-1.5-1-2.5-1s-1.8,0.3-2.5,1c-0.6,0.7-1,1.6-1,2.7c0,1.1,0.3,2,1,2.7c0.7,0.7,1.5,1,2.5,1
				S199.3,54.8,200,54.2z"/>
			<path d="M213.1,45c0.8-0.3,1.7-0.5,2.7-0.5v3.6c-0.4,0-0.7,0-0.9,0c-1.1,0-2,0.3-2.6,0.9c-0.6,0.6-1,1.6-1,2.8v6.3h-3.9V44.7h3.7
				v1.8C211.7,45.8,212.3,45.4,213.1,45z"/>
			<path d="M231.1,52.5h-10.2c0.2,0.8,0.6,1.5,1.3,2c0.7,0.5,1.5,0.7,2.5,0.7c0.7,0,1.3-0.1,1.9-0.3c0.5-0.2,1-0.5,1.5-1l2.1,2.3
				c-1.3,1.4-3.1,2.2-5.6,2.2c-1.5,0-2.9-0.3-4-0.9c-1.2-0.6-2.1-1.4-2.7-2.5c-0.6-1-1-2.2-1-3.6c0-1.3,0.3-2.5,0.9-3.6
				s1.5-1.9,2.6-2.5c1.1-0.6,2.3-0.9,3.7-0.9c1.3,0,2.5,0.3,3.6,0.9s1.9,1.4,2.5,2.4s0.9,2.3,0.9,3.7
				C231.2,51.5,231.2,51.9,231.1,52.5z M222,48.2c-0.6,0.5-1,1.2-1.1,2h6.6c-0.1-0.8-0.5-1.5-1.1-2c-0.6-0.5-1.3-0.8-2.2-0.8
				C223.3,47.5,222.6,47.7,222,48.2z"/>
		</g>
	</g>
</g>
</svg>
